<svg id="SvgjsSvg523401" width="59" height="58" xmlns="http://www.w3.org/2000/svg" version="1.1" xmlns:xlink="http://www.w3.org/1999/xlink" xmlns:svgjs="http://svgjs.com/svgjs" viewBox="0.50006103515625 0 57.9998779296875 58" fill="#5474fd" opacity="1"><defs id="SvgjsDefs523402"></defs><svg version="1.1" xmlns="http://www.w3.org/2000/svg" xmlns:xlink="http://www.w3.org/1999/xlink" width="59" height="58" viewBox="1.73431 1.23417 56.5313 56.5314"><g><path fill="#5474fd" stroke="none" paint-order="stroke fill markers" fill-rule="evenodd" d=" M 58.265624046325684 54.81229519844055 C 58.265624046325684 54.81229519844055 55.31240463256836 57.76557844877243 55.31240463256836 57.76557844877243 C 55.31240463256836 57.76557844877243 38.99996042251587 41.452895283699036 38.99996042251587 41.452895283699036 C 38.061723709106445 42.29679960012436 37.03121900558472 43.048294484615326 35.906193256378174 43.70305222272873 C 34.78116750717163 44.360101103782654 33.60786199569702 44.9224494099617 32.390568256378174 45.39060628414154 C 31.171128749847412 45.860799729824066 29.88130807876587 46.21236288547516 28.523359298706055 46.44529575109482 C 27.163264751434326 46.68026518821716 25.82731008529663 46.79685890674591 24.515602588653564 46.79685890674591 C 21.327314376831055 46.79685890674591 18.350062370300293 46.18817859888077 15.585885047912598 44.96852684020996 C 12.819561958312988 43.75142079591751 10.404715538024902 42.10994416475296 8.343706130981445 40.046642661094666 C 6.2804436683654785 37.98563230037689 4.663286209106445 35.57102221250534 3.49212646484375 32.80459439754486 C 2.3188209533691406 30.040457725524902 1.73431396484375 27.10932219028473 1.73431396484375 24.015515506267548 C 1.73431396484375 20.829553961753845 2.3188209533691406 17.852086424827576 3.49212646484375 15.085913181304932 C 4.663286209106445 12.321776509284973 6.2804436683654785 9.906911849975586 8.343706130981445 7.843610346317291 C 10.404715538024902 5.782599985599518 12.819561958312988 4.165307641029358 15.585885047912598 2.991987884044647 C 18.350062370300293 1.8209592700004578 21.327314376831055 1.2341721057891846 24.515602588653564 1.2341721057891846 C 27.60936975479126 1.2341721057891846 30.53823471069336 1.8209592700004578 33.304665088653564 2.991987884044647 C 36.06884241104126 4.165307641029358 38.48358154296875 5.782599985599518 40.54684400558472 7.843610346317291 C 42.607853412628174 9.906911849975586 44.249258041381836 12.321776509284973 45.4686975479126 15.085913181304932 C 46.685991287231445 17.852086424827576 47.29678392410278 20.829553961753845 47.29678392410278 24.015515506267548 C 47.29678392410278 25.32935869693756 47.178122997283936 26.66534960269928 46.94530725479126 28.023233652114868 C 46.71013116836548 29.383408844470978 46.35854721069336 30.673322319984436 45.8905553817749 31.890428364276886 C 45.420310497283936 33.11008012294769 44.85790491104126 34.28110873699188 44.203124046325684 35.40605992078781 C 43.5460901260376 36.53101110458374 42.79678821563721 37.56380742788315 41.9530725479126 38.49986660480499 C 41.9530725479126 38.49986660480499 58.265624046325684 54.81229519844055 58.265624046325684 54.81229519844055 C 58.265624046325684 54.81229519844055 58.265624046325684 54.81229519844055 58.265624046325684 54.81229519844055 Z M 4.124913215637207 24.015515506267548 C 4.124913215637207 26.828020751476288 4.639146327972412 29.45367056131363 5.671796798706055 31.890428364276886 C 6.702301502227783 34.329477310180664 8.154771327972412 36.48493367433548 10.03124475479126 38.35934317111969 C 11.905465126037598 40.235789239406586 14.085135459899902 41.71230357885361 16.570255756378174 42.788886189460754 C 19.053122997283936 43.86775994300842 21.703038215637207 44.406178534030914 24.515602588653564 44.406178534030914 C 27.328059673309326 44.406178534030914 29.951581954956055 43.86775994300842 32.390568256378174 42.788886189460754 C 34.82730150222778 41.71230357885361 36.982831954956055 40.235789239406586 38.8593053817749 38.35934317111969 C 40.733633041381836 36.48493367433548 42.2101354598999 34.329477310180664 43.28902721405029 31.890428364276886 C 44.365665912628174 29.45367056131363 44.906184673309326 26.828020751476288 44.906184673309326 24.015515506267548 C 44.906184673309326 21.203010261058807 44.365665912628174 18.55521273612976 43.28902721405029 16.070086359977722 C 42.2101354598999 13.587251126766205 40.733633041381836 11.407610476016998 38.8593053817749 9.531164407730103 C 36.982831954956055 7.656754910945892 34.82730150222778 6.204424858093262 32.390568256378174 5.171628534793854 C 29.951581954956055 4.141123354434967 27.328059673309326 3.624852478504181 24.515602588653564 3.624852478504181 C 21.703038215637207 3.624852478504181 19.053122997283936 4.141123354434967 16.570255756378174 5.171628534793854 C 14.085135459899902 6.204424858093262 11.905465126037598 7.656754910945892 10.03124475479126 9.531164407730103 C 8.154771327972412 11.407610476016998 6.702301502227783 13.587251126766205 5.671796798706055 16.070086359977722 C 4.639146327972412 18.55521273612976 4.124913215637207 21.203010261058807 4.124913215637207 24.015515506267548 C 4.124913215637207 24.015515506267548 4.124913215637207 24.015515506267548 4.124913215637207 24.015515506267548 Z"></path></g></svg></svg>